<svg width="21" height="25" viewBox="0 0 21 25" fill="none" xmlns="http://www.w3.org/2000/svg">
<g clip-path="url(#clip0_1_446)">
<path d="M0.342072 20.5376V17.82C0.342072 17.2651 0.460984 16.7509 0.698809 16.2776C0.936634 15.8042 1.26539 15.4452 1.68508 15.2003C1.88094 15.0861 2.0698 14.98 2.25166 14.8821C2.44752 14.7841 2.65037 14.6943 2.86022 14.6127V20.5376H0.342072ZM3.6996 13.6824C3.00011 13.6824 2.40555 13.3967 1.91591 12.8255C1.42627 12.2542 1.18145 11.5605 1.18145 10.7444C1.18145 9.92831 1.42627 9.23462 1.91591 8.66335C2.40555 8.09208 3.00011 7.80644 3.6996 7.80644C4.39908 7.80644 4.99364 8.09208 5.48328 8.66335C5.97292 9.23462 6.21774 9.92831 6.21774 10.7444C6.21774 11.5605 5.97292 12.2542 5.48328 12.8255C4.99364 13.3967 4.39908 13.6824 3.6996 13.6824ZM3.6996 11.7237C3.93742 11.7237 4.13328 11.634 4.28716 11.4544C4.45504 11.2586 4.53898 11.0219 4.53898 10.7444C4.53898 10.4669 4.45504 10.2384 4.28716 10.0589C4.13328 9.86302 3.93742 9.76508 3.6996 9.76508C3.46177 9.76508 3.25892 9.86302 3.09105 10.0589C2.93716 10.2384 2.86022 10.4669 2.86022 10.7444C2.86022 11.0219 2.93716 11.2586 3.09105 11.4544C3.25892 11.634 3.46177 11.7237 3.6996 11.7237ZM3.6996 20.5376V17.7955C3.6996 17.2406 3.81851 16.7346 4.05633 16.2776C4.30815 15.8042 4.63691 15.4452 5.04261 15.2003C5.90997 14.6943 6.79132 14.3189 7.68666 14.0741C8.582 13.813 9.49133 13.6824 10.4146 13.6824C11.338 13.6824 12.2473 13.813 13.1426 14.0741C14.038 14.3189 14.9193 14.6943 15.7867 15.2003C16.1924 15.4452 16.5142 15.8042 16.752 16.2776C17.0038 16.7346 17.1297 17.2406 17.1297 17.7955V20.5376H3.6996ZM5.37836 18.579H15.4509V17.7955C15.4509 17.616 15.409 17.4528 15.325 17.3059C15.2551 17.159 15.1572 17.0447 15.0312 16.9631C14.2758 16.5224 13.5134 16.196 12.7439 15.9838C11.9745 15.7553 11.1981 15.641 10.4146 15.641C9.63123 15.641 8.8548 15.7553 8.08537 15.9838C7.31593 16.196 6.55349 16.5224 5.79805 16.9631C5.67214 17.0447 5.56722 17.159 5.48328 17.3059C5.41333 17.4528 5.37836 17.616 5.37836 17.7955V18.579ZM10.4146 12.7031C9.49133 12.7031 8.70091 12.3195 8.0434 11.5524C7.38588 10.7852 7.05712 9.86302 7.05712 8.78576C7.05712 7.70851 7.38588 6.78631 8.0434 6.01917C8.70091 5.25204 9.49133 4.86847 10.4146 4.86847C11.338 4.86847 12.1284 5.25204 12.7859 6.01917C13.4434 6.78631 13.7722 7.70851 13.7722 8.78576C13.7722 9.86302 13.4434 10.7852 12.7859 11.5524C12.1284 12.3195 11.338 12.7031 10.4146 12.7031ZM10.4146 10.7444C10.8763 10.7444 11.268 10.5567 11.5898 10.1813C11.9255 9.78957 12.0934 9.32439 12.0934 8.78576C12.0934 8.24713 11.9255 7.79012 11.5898 7.41471C11.268 7.02298 10.8763 6.82712 10.4146 6.82712C9.95299 6.82712 9.55428 7.02298 9.21853 7.41471C8.89677 7.79012 8.73589 8.24713 8.73589 8.78576C8.73589 9.32439 8.89677 9.78957 9.21853 10.1813C9.55428 10.5567 9.95299 10.7444 10.4146 10.7444ZM17.1297 13.6824C16.4302 13.6824 15.8357 13.3967 15.346 12.8255C14.8564 12.2542 14.6116 11.5605 14.6116 10.7444C14.6116 9.92831 14.8564 9.23462 15.346 8.66335C15.8357 8.09208 16.4302 7.80644 17.1297 7.80644C17.8292 7.80644 18.4237 8.09208 18.9134 8.66335C19.403 9.23462 19.6478 9.92831 19.6478 10.7444C19.6478 11.5605 19.403 12.2542 18.9134 12.8255C18.4237 13.3967 17.8292 13.6824 17.1297 13.6824ZM17.1297 11.7237C17.3675 11.7237 17.5634 11.634 17.7173 11.4544C17.8851 11.2586 17.9691 11.0219 17.9691 10.7444C17.9691 10.4669 17.8851 10.2384 17.7173 10.0589C17.5634 9.86302 17.3675 9.76508 17.1297 9.76508C16.8919 9.76508 16.689 9.86302 16.5212 10.0589C16.3673 10.2384 16.2903 10.4669 16.2903 10.7444C16.2903 11.0219 16.3673 11.2586 16.5212 11.4544C16.689 11.634 16.8919 11.7237 17.1297 11.7237ZM17.9691 20.5376V14.6127C18.1789 14.6943 18.3748 14.7841 18.5567 14.8821C18.7525 14.98 18.9484 15.0861 19.1442 15.2003C19.5639 15.4452 19.8927 15.8042 20.1305 16.2776C20.3683 16.7509 20.4872 17.2651 20.4872 17.82V20.5376H17.9691Z" fill="#FEF7FF"/>
</g>
<defs>
<clipPath id="clip0_1_446">
<rect width="20.1452" height="23.5038" fill="white" transform="translate(0.342072 0.951172)"/>
</clipPath>
</defs>
</svg>
