<svg width="21" height="25" viewBox="0 0 21 25" fill="none" xmlns="http://www.w3.org/2000/svg">
<path d="M16.794 21.3741L11.5059 15.2043C11.0862 15.5961 10.6035 15.9062 10.0579 16.1347C9.51233 16.3632 8.93176 16.4775 8.31621 16.4775C6.79133 16.4775 5.50078 15.8613 4.44456 14.629C3.38834 13.3967 2.86023 11.891 2.86023 10.1118C2.86023 8.33274 3.38834 6.82703 4.44456 5.59472C5.50078 4.3624 6.79133 3.74625 8.31621 3.74625C9.84109 3.74625 11.1316 4.3624 12.1879 5.59472C13.2441 6.82703 13.7722 8.33274 13.7722 10.1118C13.7722 10.83 13.6743 11.5074 13.4784 12.1439C13.2826 12.7805 13.0167 13.3436 12.681 13.8333L17.9691 20.003L16.794 21.3741ZM8.31621 14.5188C9.36544 14.5188 10.2573 14.0903 10.9917 13.2334C11.7262 12.3765 12.0934 11.336 12.0934 10.1118C12.0934 8.88769 11.7262 7.84716 10.9917 6.99026C10.2573 6.13335 9.36544 5.70489 8.31621 5.70489C7.26698 5.70489 6.37514 6.13335 5.64068 6.99026C4.90622 7.84716 4.53899 8.88769 4.53899 10.1118C4.53899 11.336 4.90622 12.3765 5.64068 13.2334C6.37514 14.0903 7.26698 14.5188 8.31621 14.5188Z" fill="#FEF7FF"/>
</svg>
