<svg width="21" height="25" viewBox="0 0 21 25" fill="none" xmlns="http://www.w3.org/2000/svg">
<path d="M8.10634 22.1955L7.77058 19.0617C7.58872 18.9801 7.41734 18.8821 7.25646 18.7679C7.09558 18.6536 6.9382 18.5312 6.78431 18.4006L4.28715 19.6248L1.97885 14.973L4.14026 13.0633C4.12627 12.9491 4.11927 12.8389 4.11927 12.7328V12.0718C4.11927 11.9657 4.12627 11.8555 4.14026 11.7412L1.97885 9.83155L4.28715 5.17976L6.78431 6.40392C6.9382 6.27334 7.09908 6.15093 7.26696 6.03667C7.43483 5.92242 7.60271 5.82448 7.77058 5.74287L8.10634 2.60904H12.7229L13.0587 5.74287C13.2406 5.82448 13.4119 5.92242 13.5728 6.03667C13.7337 6.15093 13.8911 6.27334 14.045 6.40392L16.5421 5.17976L18.8504 9.83155L16.689 11.7412C16.703 11.8555 16.71 11.9657 16.71 12.0718V12.7328C16.71 12.8389 16.696 12.9491 16.668 13.0633L18.8294 14.973L16.5211 19.6248L14.045 18.4006C13.8911 18.5312 13.7302 18.6536 13.5623 18.7679C13.3944 18.8821 13.2266 18.9801 13.0587 19.0617L12.7229 22.1955H8.10634ZM10.4566 15.8299C11.268 15.8299 11.9605 15.4953 12.5341 14.8261C13.1077 14.1569 13.3944 13.349 13.3944 12.4023C13.3944 11.4556 13.1077 10.6477 12.5341 9.97845C11.9605 9.30924 11.268 8.97464 10.4566 8.97464C9.63121 8.97464 8.93523 9.30924 8.36864 9.97845C7.80206 10.6477 7.51877 11.4556 7.51877 12.4023C7.51877 13.349 7.80206 14.1569 8.36864 14.8261C8.93523 15.4953 9.63121 15.8299 10.4566 15.8299Z" fill="#FEF7FF"/>
</svg>
